<?xml version="1.0" encoding="utf-8"?>
<svg xmlns="http://www.w3.org/2000/svg" xmlns:xlink="http://www.w3.org/1999/xlink" viewBox="0 0 50 50">
    <defs>
        <style>
            .ae5308d9-9c96-497a-b73d-caf96d09a844,
            .b5338bcb-9ae4-4604-97f6-f25f83a41220,
            .ffebac0d-2602-4931-84bb-bc8d130914f7 {
                fill: #fff;
            }

            .ffebac0d-2602-4931-84bb-bc8d130914f7 {
                clip-rule: evenodd;
            }

            .e78c10b8-369e-4ad3-b6a8-c0d4047e48d6 {
                fill: #0b1e2c;
            }

            .b5338bcb-9ae4-4604-97f6-f25f83a41220 {
                fill-rule: evenodd;
            }

            .aa3408b9-7321-475e-8390-61fc11f4c5c0 {
                clip-path: url(#f7c03226-81fb-40f0-8663-762db151e0f1);
            }
        </style>
        <clipPath id="f7c03226-81fb-40f0-8663-762db151e0f1">
            <path class="ffebac0d-2602-4931-84bb-bc8d130914f7"
                d="M31.45,14.85a1.28,1.28,0,1,1,1.28-1.28A1.28,1.28,0,0,1,31.45,14.85Zm0,22.86a1.28,1.28,0,1,1,0-2.56,1.28,1.28,0,0,1,0,2.56Zm6.62-11.43A1.28,1.28,0,1,1,39.35,25,1.28,1.28,0,0,1,38.07,26.28Zm-26.14,0A1.28,1.28,0,1,1,13.21,25,1.28,1.28,0,0,1,11.93,26.28Zm6.59-11.43a1.28,1.28,0,0,1,0-2.56,1.28,1.28,0,1,1,0,2.56Zm0,22.86a1.28,1.28,0,1,1,1.28-1.28A1.28,1.28,0,0,1,18.52,37.71ZM33.69,10.38a.82.82,0,1,1,.82-.82A.82.82,0,0,1,33.69,10.38Zm0,30.88a.82.82,0,1,1,.82-.82A.82.82,0,0,1,33.69,41.26Zm9.1-15.44a.82.82,0,1,1,.82-.82A.82.82,0,0,1,42.79,25.82Zm-35.58,0A.82.82,0,1,1,8,25,.82.82,0,0,1,7.21,25.82Zm9.07-15.44a.82.82,0,1,1,.81-.82A.82.82,0,0,1,16.28,10.38Zm0,30.88a.82.82,0,1,1,.81-.82A.82.82,0,0,1,16.28,41.26ZM25,16.34a1.49,1.49,0,1,1,1.48-1.49A1.49,1.49,0,0,1,25,16.34Zm0,20.3a1.49,1.49,0,1,1,1.48-1.49A1.48,1.48,0,0,1,25,36.64ZM25,9.87a1,1,0,1,1,1-1A1,1,0,0,1,25,9.87Zm0,32.34a1,1,0,1,1,1-1A1,1,0,0,1,25,42.21ZM33.74,21.4a1.49,1.49,0,1,1,1.49-1.49A1.49,1.49,0,0,1,33.74,21.4Zm0,10.18a1.49,1.49,0,1,1,1.49-1.49A1.49,1.49,0,0,1,33.74,31.58ZM16.23,21.4a1.49,1.49,0,1,1,1.49-1.49A1.49,1.49,0,0,1,16.23,21.4Zm0,10.18a1.49,1.49,0,1,1,1.49-1.49A1.49,1.49,0,0,1,16.23,31.58Zm11.7-9.23a2.53,2.53,0,1,1,2.53-2.53A2.53,2.53,0,0,1,27.93,22.35Zm0,10.36a2.53,2.53,0,1,1,2.53-2.53A2.53,2.53,0,0,1,27.93,32.71Zm3-5.18A2.53,2.53,0,1,1,33.46,25,2.54,2.54,0,0,1,30.93,27.53Zm-11.86,0A2.53,2.53,0,1,1,21.61,25,2.53,2.53,0,0,1,19.07,27.53Zm3-5.18a2.53,2.53,0,1,1,2.53-2.53A2.53,2.53,0,0,1,22,22.35Zm0,10.36a2.53,2.53,0,1,1,2.53-2.53A2.53,2.53,0,0,1,22,32.71ZM38.86,17.94a1,1,0,1,1,1-1A1,1,0,0,1,38.86,17.94Zm0,16.14a1,1,0,1,1,1-1A1,1,0,0,1,38.86,34.08ZM11.11,17.94a1,1,0,1,1,1-1A1,1,0,0,1,11.11,17.94Zm0,16.14a1,1,0,1,1,1-1A1,1,0,0,1,11.11,34.08Z" />
        </clipPath>
    </defs>
    <title>Fichier 456</title>
    <g id="b4141811-f3f1-4f0a-9d4a-929baf05087b" data-name="Calque 2">
        <g id="a0a6b00a-a843-46b8-86a8-b37e2dd6332b" data-name="Back">
            <rect id="ff1c7167-0021-4d64-8728-10b1d67ab7fd" data-name="Your color"
                class="e78c10b8-369e-4ad3-b6a8-c0d4047e48d6" width="50" height="50" rx="19.67" />
            <path class="b5338bcb-9ae4-4604-97f6-f25f83a41220"
                d="M31.45,14.85a1.28,1.28,0,1,1,1.28-1.28A1.28,1.28,0,0,1,31.45,14.85Zm0,22.86a1.28,1.28,0,1,1,0-2.56,1.28,1.28,0,0,1,0,2.56Zm6.62-11.43A1.28,1.28,0,1,1,39.35,25,1.28,1.28,0,0,1,38.07,26.28Zm-26.14,0A1.28,1.28,0,1,1,13.21,25,1.28,1.28,0,0,1,11.93,26.28Zm6.59-11.43a1.28,1.28,0,0,1,0-2.56,1.28,1.28,0,1,1,0,2.56Zm0,22.86a1.28,1.28,0,1,1,1.28-1.28A1.28,1.28,0,0,1,18.52,37.71ZM33.69,10.38a.82.82,0,1,1,.82-.82A.82.82,0,0,1,33.69,10.38Zm0,30.88a.82.82,0,1,1,.82-.82A.82.82,0,0,1,33.69,41.26Zm9.1-15.44a.82.82,0,1,1,.82-.82A.82.82,0,0,1,42.79,25.82Zm-35.58,0A.82.82,0,1,1,8,25,.82.82,0,0,1,7.21,25.82Zm9.07-15.44a.82.82,0,1,1,.81-.82A.82.82,0,0,1,16.28,10.38Zm0,30.88a.82.82,0,1,1,.81-.82A.82.82,0,0,1,16.28,41.26ZM25,16.34a1.49,1.49,0,1,1,1.48-1.49A1.49,1.49,0,0,1,25,16.34Zm0,20.3a1.49,1.49,0,1,1,1.48-1.49A1.48,1.48,0,0,1,25,36.64ZM25,9.87a1,1,0,1,1,1-1A1,1,0,0,1,25,9.87Zm0,32.34a1,1,0,1,1,1-1A1,1,0,0,1,25,42.21ZM33.74,21.4a1.49,1.49,0,1,1,1.49-1.49A1.49,1.49,0,0,1,33.74,21.4Zm0,10.18a1.49,1.49,0,1,1,1.49-1.49A1.49,1.49,0,0,1,33.74,31.58ZM16.23,21.4a1.49,1.49,0,1,1,1.49-1.49A1.49,1.49,0,0,1,16.23,21.4Zm0,10.18a1.49,1.49,0,1,1,1.49-1.49A1.49,1.49,0,0,1,16.23,31.58Zm11.7-9.23a2.53,2.53,0,1,1,2.53-2.53A2.53,2.53,0,0,1,27.93,22.35Zm0,10.36a2.53,2.53,0,1,1,2.53-2.53A2.53,2.53,0,0,1,27.93,32.71Zm3-5.18A2.53,2.53,0,1,1,33.46,25,2.54,2.54,0,0,1,30.93,27.53Zm-11.86,0A2.53,2.53,0,1,1,21.61,25,2.53,2.53,0,0,1,19.07,27.53Zm3-5.18a2.53,2.53,0,1,1,2.53-2.53A2.53,2.53,0,0,1,22,22.35Zm0,10.36a2.53,2.53,0,1,1,2.53-2.53A2.53,2.53,0,0,1,22,32.71ZM38.86,17.94a1,1,0,1,1,1-1A1,1,0,0,1,38.86,17.94Zm0,16.14a1,1,0,1,1,1-1A1,1,0,0,1,38.86,34.08ZM11.11,17.94a1,1,0,1,1,1-1A1,1,0,0,1,11.11,17.94Zm0,16.14a1,1,0,1,1,1-1A1,1,0,0,1,11.11,34.08Z" />
            <g class="aa3408b9-7321-475e-8390-61fc11f4c5c0">
                <rect class="ae5308d9-9c96-497a-b73d-caf96d09a844" x="6.32" y="7.72" width="37.37" height="34.57" />
            </g>
        </g>
    </g>
</svg>